<?xml version="1.0" encoding="utf-8"?>
<!-- Generator: Adobe Illustrator 19.1.0, SVG Export Plug-In . SVG Version: 6.00 Build 0)  -->
<svg version="1.1" id="Layer_1" xmlns="http://www.w3.org/2000/svg" xmlns:xlink="http://www.w3.org/1999/xlink" x="0px" y="0px"
	 viewBox="-196.7 269 123.9 29.6" style="enable-background:new -196.7 269 123.9 29.6;" xml:space="preserve">
<style type="text/css">
	.st0{fill:url(#SVGID_1_);}
	.st1{fill:url(#SVGID_2_);}
	.st2{fill:url(#SVGID_3_);}
	.st3{fill:url(#SVGID_4_);}
	.st4{fill:url(#SVGID_5_);}
	.st5{fill:url(#SVGID_6_);}
	.st6{fill:url(#SVGID_7_);}
	.st7{fill:url(#SVGID_8_);}
</style>
<g>
	
		<linearGradient id="SVGID_1_" gradientUnits="userSpaceOnUse" x1="-453.7975" y1="-649.2349" x2="-453.7975" y2="-674.84" gradientTransform="matrix(1 0 0 -1 280 -373.5)">
		<stop  offset="0" style="stop-color:#FFFFFE"/>
		<stop  offset="0.4815" style="stop-color:#F2F1F1"/>
		<stop  offset="1" style="stop-color:#E9E7E8"/>
	</linearGradient>
	<path class="st0" d="M-170.8,285.5h-5.8c0.2,1.2,0.5,2,1.1,2.4c0.6,0.4,1.5,0.6,2.8,0.6c1.7,0,3.7-0.1,6-0.4l0.5,3
		c-1.7,0.8-4,1.2-7,1.2c-3,0-5.2-0.7-6.5-2c-1.3-1.3-1.9-3.5-1.9-6.5c0-3.2,0.6-5.4,1.9-6.7c1.3-1.3,3.4-1.9,6.3-1.9
		c2.7,0,4.6,0.5,5.8,1.4c1.2,0.9,1.8,2.3,1.8,4.2c0,1.5-0.4,2.6-1.2,3.4C-167.8,285.1-169,285.5-170.8,285.5z M-176.7,282.6h4.6
		c0.6,0,1-0.1,1.2-0.4c0.2-0.3,0.3-0.7,0.3-1.2c0-0.8-0.2-1.3-0.6-1.6c-0.4-0.3-1.1-0.4-2.2-0.4c-1.2,0-2.1,0.2-2.6,0.7
		C-176.4,280.1-176.6,281.1-176.7,282.6z"/>
	
		<linearGradient id="SVGID_2_" gradientUnits="userSpaceOnUse" x1="-436.8775" y1="-649.2349" x2="-436.8775" y2="-674.8398" gradientTransform="matrix(1 0 0 -1 280 -373.5)">
		<stop  offset="0" style="stop-color:#FFFFFE"/>
		<stop  offset="0.4815" style="stop-color:#F2F1F1"/>
		<stop  offset="1" style="stop-color:#E9E7E8"/>
	</linearGradient>
	<path class="st1" d="M-147.9,275.8l-5.7,16.4c-0.3,0.9-0.7,1.7-1.1,2.4c-0.4,0.7-1,1.5-1.7,2.1c-0.7,0.7-1.6,1.2-2.6,1.5
		c-1,0.3-2.2,0.4-3.5,0.3l-0.4-2.9c1.3-0.4,2.3-0.8,3.1-1.4c0.7-0.6,1.3-1.3,1.7-2.2l0.1-0.1h-0.9c-0.8,0-1.3-0.4-1.6-1.2l-5.3-15
		h5.2l3,10.5c0.2,0.8,0.4,1.6,0.5,2.4h0.4c0.1-0.3,0.2-0.7,0.3-1.2c0.2-0.6,0.3-1,0.3-1.2l3-10.5L-147.9,275.8L-147.9,275.8z"/>
	
		<linearGradient id="SVGID_3_" gradientUnits="userSpaceOnUse" x1="-421.2345" y1="-649.2349" x2="-421.2345" y2="-674.84" gradientTransform="matrix(1 0 0 -1 280 -373.5)">
		<stop  offset="0" style="stop-color:#FFFFFE"/>
		<stop  offset="0.4815" style="stop-color:#F2F1F1"/>
		<stop  offset="1" style="stop-color:#E9E7E8"/>
	</linearGradient>
	<path class="st2" d="M-134.5,288.1l0.4,3.1c-1.7,0.7-3.8,1.1-6.3,1.1c-3,0-5.1-0.6-6.3-1.9c-1.2-1.3-1.8-3.5-1.8-6.6
		c0-3.1,0.6-5.3,1.8-6.6c1.2-1.3,3.3-1.9,6.3-1.9c2.4,0,4.4,0.3,6,1l-0.5,3c-2.4,0-3.9-0.1-4.6-0.1c-1.5,0-2.5,0.3-3.1,1
		c-0.6,0.6-0.8,1.8-0.8,3.6s0.3,3,0.8,3.6c0.6,0.6,1.6,0.9,3.1,0.9C-137.5,288.4-135.9,288.3-134.5,288.1z"/>
	
		<linearGradient id="SVGID_4_" gradientUnits="userSpaceOnUse" x1="-395.7005" y1="-649.2349" x2="-395.7005" y2="-674.8403" gradientTransform="matrix(1 0 0 -1 280 -373.5)">
		<stop  offset="0" style="stop-color:#FFFFFE"/>
		<stop  offset="0.4815" style="stop-color:#F2F1F1"/>
		<stop  offset="1" style="stop-color:#E9E7E8"/>
	</linearGradient>
	<path class="st3" d="M-115.7,275.3c3,0,5.2,0.7,6.4,2c1.3,1.3,1.9,3.5,1.9,6.6c0,3.1-0.6,5.3-1.9,6.6c-1.3,1.3-3.4,1.9-6.4,1.9
		c-3,0-5.2-0.6-6.4-1.9c-1.3-1.3-1.9-3.5-1.9-6.6c0-3.1,0.6-5.3,1.9-6.6C-120.9,276-118.7,275.3-115.7,275.3z M-115.7,279
		c-1.3,0-2.2,0.3-2.6,1c-0.4,0.7-0.7,2-0.7,3.9c0,1.9,0.2,3.2,0.7,3.9c0.4,0.7,1.3,1,2.6,1c1.2,0,2.1-0.3,2.5-1
		c0.4-0.7,0.7-1.9,0.7-3.9c0-1.9-0.2-3.3-0.7-3.9C-113.6,279.3-114.4,279-115.7,279z"/>
	
		<linearGradient id="SVGID_5_" gradientUnits="userSpaceOnUse" x1="-378.64" y1="-649.2349" x2="-378.64" y2="-674.84" gradientTransform="matrix(1 0 0 -1 280 -373.5)">
		<stop  offset="0" style="stop-color:#FFFFFE"/>
		<stop  offset="0.4815" style="stop-color:#F2F1F1"/>
		<stop  offset="1" style="stop-color:#E9E7E8"/>
	</linearGradient>
	<path class="st4" d="M-105.2,279.4l-0.5-3.3c2.9-0.5,5.7-0.8,8.4-0.8c2.2,0,3.8,0.4,4.8,1.3c1,0.9,1.5,2.4,1.5,4.6V292h-3.8
		l-0.5-2.5c-1.6,1.9-3.6,2.9-6,2.9c-1.6,0-2.8-0.4-3.8-1.2c-1-0.8-1.5-2-1.5-3.4v-1.6c0-1.3,0.4-2.3,1.3-3c0.9-0.7,2.1-1.1,3.6-1.1
		h5.8v-0.7c0-0.8-0.2-1.4-0.6-1.7c-0.4-0.3-1.1-0.4-2.1-0.4C-100.2,279.1-102.4,279.2-105.2,279.4z M-101.6,286.4v0.6
		c0,1.1,0.6,1.7,1.9,1.7c1.3,0,2.7-0.5,4-1.6v-2.3h-4.4C-101.1,284.9-101.6,285.4-101.6,286.4z"/>
	
		<linearGradient id="SVGID_6_" gradientUnits="userSpaceOnUse" x1="-468.6775" y1="-649.2349" x2="-468.6775" y2="-674.837" gradientTransform="matrix(1 0 0 -1 280 -373.5)">
		<stop  offset="0" style="stop-color:#FFFFFE"/>
		<stop  offset="0.4815" style="stop-color:#F2F1F1"/>
		<stop  offset="1" style="stop-color:#E9E7E8"/>
	</linearGradient>
	<path class="st5" d="M-185.4,284.8c-0.5-0.8-1-1.4-1.5-1.7v-0.1c0.7-0.4,1.2-1,1.5-1.5l4.2-5.6h-5.4l-4,5.6h-1.5
		c0.2-0.9,0.2-1.9,0.2-3V269h-1.5l-3.3,4.8V292h4.9v-5.1c0-0.6-0.1-1.4-0.2-2.4h1.5l4.5,7.5h5.4L-185.4,284.8z"/>
	
		<linearGradient id="SVGID_7_" gradientUnits="userSpaceOnUse" x1="-408.6105" y1="-649.2349" x2="-408.6105" y2="-674.8392" gradientTransform="matrix(1 0 0 -1 280 -373.5)">
		<stop  offset="0" style="stop-color:#FFFFFE"/>
		<stop  offset="0.4815" style="stop-color:#F2F1F1"/>
		<stop  offset="1" style="stop-color:#E9E7E8"/>
	</linearGradient>
	<path class="st6" d="M-124.9,288.3h-1.3c-1.2,0-1.8-0.5-1.8-1.6V269h-1.5l-3.3,4.7v14.2c0,1.4,0.4,2.5,1.2,3.3
		c0.8,0.8,2,1.2,3.4,1.2c1.7,0,3-0.2,3.9-0.7L-124.9,288.3z"/>
	
		<linearGradient id="SVGID_8_" gradientUnits="userSpaceOnUse" x1="-360.9145" y1="-649.2349" x2="-360.9145" y2="-674.837" gradientTransform="matrix(1 0 0 -1 280 -373.5)">
		<stop  offset="0" style="stop-color:#FFFFFE"/>
		<stop  offset="0.4815" style="stop-color:#F2F1F1"/>
		<stop  offset="1" style="stop-color:#E9E7E8"/>
	</linearGradient>
	<path class="st7" d="M-77.6,284.8c-0.5-0.8-1-1.4-1.5-1.7v-0.1c0.7-0.4,1.2-1,1.5-1.5l4.2-5.6h-5.4l-4,5.6h-1.5
		c0.2-0.9,0.2-1.9,0.2-3V269h-1.5l-3.3,4.8V292h4.9v-5.1c0-0.6-0.1-1.4-0.2-2.4h1.5l4.5,7.5h5.4L-77.6,284.8z"/>
</g>
</svg>
