<?xml version="1.0" encoding="utf-8"?>
<!-- Generator: Adobe Illustrator 19.1.0, SVG Export Plug-In . SVG Version: 6.00 Build 0)  -->
<svg version="1.1" id="Layer_1" xmlns="http://www.w3.org/2000/svg" xmlns:xlink="http://www.w3.org/1999/xlink" x="0px" y="0px"
	 viewBox="-460.1 260.5 36.1 39.8" style="enable-background:new -460.1 260.5 36.1 39.8;" xml:space="preserve">
<style type="text/css">
	.st0{fill:none;stroke:#FFFFFF;stroke-width:4.5285;stroke-linecap:round;stroke-linejoin:round;stroke-miterlimit:10;}
	.st1{fill:url(#SVGID_1_);}
	.st2{fill:none;stroke:#034672;stroke-width:1.0063;stroke-linecap:round;stroke-linejoin:round;stroke-miterlimit:10;}
	.st3{fill:#034672;}
	.st4{fill:#FFFFFF;}
	.st5{fill:url(#SVGID_2_);}
	.st6{fill:url(#SVGID_3_);}
	.st7{fill:none;stroke:#034672;stroke-width:1.0063;stroke-miterlimit:10;}
	.st8{fill:#E9F6FE;stroke:#034672;stroke-width:1.0063;stroke-miterlimit:10;}
	.st9{fill:url(#SVGID_4_);}
	.st10{opacity:0.2;enable-background:new    ;}
	.st11{fill:url(#SVGID_5_);}
</style>
<g>
	<g>
		<path class="st0" d="M-426.3,278.2c-3.6,2.5-7.4,1.9-11.7-1.7c-2.5-2-5.6-1.4-7.8-0.7c-1.3,0.4-3.2,0.4-4.8,0
			c-7-1.5-5.5,3-4.2,7.1c2.4,7.4-1.6,9.1-3,6.4c-0.9,3.3,3.6,4.3,5.5,3.9c3-0.7,7.1-1.1,9.6-0.3c4.8,1.5,6.6,0.3,5.8-1.3
			c-0.3-0.5-0.1-1.2,0.3-1.6c1.4-1.2,2.7-0.2,4-1c1.1-0.6,1-2-0.6-2.7c-0.9-0.4-0.8-1.4,0.1-1.9c1.9-1,4.4-0.5,5-2.6
			C-427.7,281-427.1,279.2-426.3,278.2z"/>
		<path class="st0" d="M-443,265.3c-0.5-0.3-2.2-1.3-2.6-1.5c-0.4-0.2-1.4-0.9-2.4-0.9s-2,0.7-2.4,0.9c-0.4,0.2-2,1.2-2.6,1.5
			c-0.4,0.2-1.9,1-1.9,3.2c0,0.7,0,1.8,0,2.3c0,1.4,0.8,2.5,2.3,3.2c0.5,0.3,0.9,0.7,0.9,1.7c0,0.5,0.2,0.6,0.5,0.6h0.3
			c0.3,0,0.5,0.1,0.5,0.6c0,0.3,0,1,0,1v18.7l1.4,1.4h0.6l2.9-2.9V278c0,0,0-0.8,0-1c0-0.5,0.2-0.6,0.5-0.6h0.3
			c0.3,0,0.5-0.1,0.5-0.6c0-1.1,0.4-1.5,0.9-1.7c1.5-0.7,2.3-1.8,2.3-3.2c0-0.5,0-1.6,0-2.3C-441.2,266.3-442.6,265.5-443,265.3z"/>
	</g>
	
		<linearGradient id="SVGID_1_" gradientUnits="userSpaceOnUse" x1="-737.7924" y1="-657.8551" x2="-706.263" y2="-657.8551" gradientTransform="matrix(1 0 0 -1 280 -373.5)">
		<stop  offset="0" style="stop-color:#FDFDFD"/>
		<stop  offset="0.1452" style="stop-color:#F4F5F5"/>
		<stop  offset="0.6844" style="stop-color:#D9DBDB"/>
		<stop  offset="1" style="stop-color:#CFD1D1"/>
	</linearGradient>
	<path class="st1" d="M-426.3,278.2c-3.6,2.5-7.4,1.9-11.7-1.7c-2.5-2-5.6-1.4-7.8-0.7c-1.3,0.4-3.2,0.4-4.8,0c-7-1.5-5.5,3-4.2,7.1
		c2.4,7.4-1.6,9.1-3,6.4c-0.9,3.3,3.6,4.3,5.5,3.9c3-0.7,7.1-1.1,9.6-0.3c4.8,1.5,6.6,0.3,5.8-1.3c-0.3-0.5-0.1-1.2,0.3-1.6
		c1.4-1.2,2.7-0.2,4-1c1.1-0.6,1-2-0.6-2.7c-0.9-0.4-0.8-1.4,0.1-1.9c1.9-1,4.4-0.5,5-2.6C-427.7,281-427.1,279.2-426.3,278.2z"/>
	<path class="st2" d="M-426.3,278.2c-3.6,2.5-7.4,1.9-11.7-1.7c-2.5-2-5.6-1.4-7.8-0.7c-1.3,0.4-3.2,0.4-4.8,0c-7-1.5-5.5,3-4.2,7.1
		c2.4,7.4-1.6,9.1-3,6.4c-0.9,3.3,3.6,4.3,5.5,3.9c3-0.7,7.1-1.1,9.6-0.3c4.8,1.5,6.6,0.3,5.8-1.3c-0.3-0.5-0.1-1.2,0.3-1.6
		c1.4-1.2,2.7-0.2,4-1c1.1-0.6,1-2-0.6-2.7c-0.9-0.4-0.8-1.4,0.1-1.9c1.9-1,4.4-0.5,5-2.6C-427.7,281-427.1,279.2-426.3,278.2z"/>
	<path class="st3" d="M-454.2,282.7c-1.4-3.8-3.3-8.4,3.8-6.9c1.6,0.3,3.5,0.4,4.8,0c2.1-0.7,5-1.2,7.3,0.8
		c4.5,3.9,8.5,4.2,12.1,1.7c-0.8,1-1.6,2.8-1.7,3.6c-0.1,0.6-0.6,1-1.2,1.2c-6.6,2.4-7.1-2.8-10.1-4.9c-1.6-1.1-4.5-1-6.3-0.3
		c-1.6,0.6-3.2,0.4-4.9-0.2C-453.3,276.5-455.3,277.1-454.2,282.7z"/>
	<path class="st4" d="M-443,265.3c-0.5-0.3-2.2-1.3-2.6-1.5c-0.4-0.2-1.4-0.9-2.4-0.9s-2,0.7-2.4,0.9c-0.4,0.2-2,1.2-2.6,1.5
		c-0.4,0.2-1.9,1-1.9,3.2c0,0.7,0,1.8,0,2.3c0,1.4,0.8,2.5,2.3,3.2c0.5,0.3,0.9,0.7,0.9,1.7c0,0.5,0.2,0.6,0.5,0.6h0.3
		c0.3,0,0.5,0.1,0.5,0.6c0,0.3,0,1,0,1v18.7l1.4,1.4h0.6l2.9-2.9V278c0,0,0-0.8,0-1c0-0.5,0.2-0.6,0.5-0.6h0.3
		c0.3,0,0.5-0.1,0.5-0.6c0-1.1,0.4-1.5,0.9-1.7c1.5-0.7,2.3-1.8,2.3-3.2c0-0.5,0-1.6,0-2.3C-441.2,266.3-442.6,265.5-443,265.3z"/>
	
		<linearGradient id="SVGID_2_" gradientUnits="userSpaceOnUse" x1="-732.8558" y1="-654.9436" x2="-717.341" y2="-651.086" gradientTransform="matrix(1 0 0 -1 280 -373.5)">
		<stop  offset="0" style="stop-color:#B8D7E9"/>
		<stop  offset="0.3324" style="stop-color:#CCE3F1"/>
		<stop  offset="0.6937" style="stop-color:#DAEBF7"/>
		<stop  offset="1" style="stop-color:#DFEEF9"/>
	</linearGradient>
	<path class="st5" d="M-443,265.3c-0.5-0.3-2.2-1.3-2.6-1.5c-0.4-0.2-1.4-0.9-2.4-0.9v34.9l2.4-2.5V278c0,0,0-0.8,0-1
		c0-0.5,0.2-0.6,0.5-0.6h0.3c0.3,0,0.5-0.1,0.5-0.6c0-1.1,0.4-1.5,0.9-1.7c1.5-0.7,2.3-1.8,2.3-3.2c0-0.5,0-1.6,0-2.3
		C-441.2,266.3-442.6,265.5-443,265.3z"/>
	
		<linearGradient id="SVGID_3_" gradientUnits="userSpaceOnUse" x1="-731.3646" y1="-642.7816" x2="-727.0247" y2="-664.0419" gradientTransform="matrix(1 0 0 -1 280 -373.5)">
		<stop  offset="0" style="stop-color:#F1F9FE"/>
		<stop  offset="0.4254" style="stop-color:#E9F5FD"/>
		<stop  offset="1" style="stop-color:#E4F3FD"/>
	</linearGradient>
	<path class="st6" d="M-448,262.8c-1.1,0-2,0.7-2.4,0.9c-0.4,0.2-2,1.2-2.6,1.5c-0.4,0.2-1.9,1-1.9,3.2c0,0.7,0,1.8,0,2.3
		c0,1.4,0.8,2.5,2.3,3.2c0.5,0.3,0.9,0.7,0.9,1.7c0,0.5,0.2,0.6,0.5,0.6h0.3c0.3,0,0.5,0.1,0.5,0.6c0,0.3,0,1,0,1v18.7l1.4,1.4h0.6
		l0.4-0.4L-448,262.8L-448,262.8z"/>
	<path class="st7" d="M-443,265.3c-0.5-0.3-2.2-1.3-2.6-1.5c-0.4-0.2-1.4-0.9-2.4-0.9s-2,0.7-2.4,0.9c-0.4,0.2-2,1.2-2.6,1.5
		c-0.4,0.2-1.9,1-1.9,3.2c0,0.7,0,1.8,0,2.3c0,1.4,0.8,2.5,2.3,3.2c0.5,0.3,0.9,0.7,0.9,1.7c0,0.5,0.2,0.6,0.5,0.6h0.3
		c0.3,0,0.5,0.1,0.5,0.6c0,0.3,0,1,0,1v18.7l1.4,1.4h0.6l2.9-2.9V278c0,0,0-0.8,0-1c0-0.5,0.2-0.6,0.5-0.6h0.3
		c0.3,0,0.5-0.1,0.5-0.6c0-1.1,0.4-1.5,0.9-1.7c1.5-0.7,2.3-1.8,2.3-3.2c0-0.5,0-1.6,0-2.3C-441.2,266.3-442.6,265.5-443,265.3z"/>
	<path class="st8" d="M-440.6,278"/>
	
		<linearGradient id="SVGID_4_" gradientUnits="userSpaceOnUse" x1="-728.0125" y1="-640.3462" x2="-728.0125" y2="-645.4634" gradientTransform="matrix(1 0 0 -1 280 -373.5)">
		<stop  offset="0" style="stop-color:#00639A"/>
		<stop  offset="0.2355" style="stop-color:#00578A"/>
		<stop  offset="0.507" style="stop-color:#004D7B"/>
		<stop  offset="0.7167" style="stop-color:#004773"/>
		<stop  offset="1" style="stop-color:#00446E"/>
	</linearGradient>
	<polygon class="st9" points="-448,267.8 -452.6,266.8 -453.1,268.7 -448,271.2 -443,268.7 -443.5,266.8 	"/>
	<polyline class="st10" points="-448,271.2 -443,268.7 -443.5,266.8 -448,267.8 	"/>
	<path class="st3" d="M-450.5,277.6c1.7,0.6,3.4,0.8,4.9,0.2l-0.1-1.1c-1.3,0.4-3.2,0.4-4.8,0L-450.5,277.6z"/>
	<path class="st3" d="M-448.1,277.4c-0.2,1.4,1,2.4,1,3.8C-445.3,279.1-447.7,278.3-448.1,277.4z"/>
	<path class="st3" d="M-448.2,277.5c-0.1,1.6-0.2,2.8-0.9,3.6C-450.3,278.8-448.7,278-448.2,277.5z"/>
	<circle class="st3" cx="-448.2" cy="277.5" r="0.8"/>
	
		<linearGradient id="SVGID_5_" gradientUnits="userSpaceOnUse" x1="-722.593" y1="-666.396" x2="-722.593" y2="-666.396" gradientTransform="matrix(1 0 0 -1 280 -373.5)">
		<stop  offset="0" style="stop-color:#F6F6F6"/>
		<stop  offset="0.5386" style="stop-color:#E4E4E4"/>
		<stop  offset="1" style="stop-color:#DADADA"/>
	</linearGradient>
	<path class="st11" d="M-442.6,292.9"/>
</g>
</svg>
